<svg xmlns="http://www.w3.org/2000/svg" viewBox="0 0 425.33 206.16"><defs><style>.cls-1{isolation:isolate;}.cls-2{opacity:0.8;mix-blend-mode:soft-light;}.cls-3{fill:#00d7ff;}.cls-4{fill:#ff63be;}.cls-5{fill:#fff;}.cls-6{fill:#ffd01f;}.cls-7{fill:#ffb700;}.cls-8{fill:#00aef2;}.cls-9{fill:#ffcc38;}</style></defs><title>Asset 1</title><g class="cls-1"><g id="Layer_2" data-name="Layer 2"><g id="BACKGROUND_1" data-name="BACKGROUND 1"><g class="cls-2"><path d="M421.73,182H153.26a3.62,3.62,0,0,0-3.6,3.32,3.48,3.48,0,0,0,3.41,3.68H421.92a3.48,3.48,0,0,0,3.41-3.68A3.62,3.62,0,0,0,421.73,182Z"/><path d="M135.77,189H6.93a3.42,3.42,0,0,1-3.42-3.41h0a3.42,3.42,0,0,1,3.42-3.42H135.77a3.42,3.42,0,0,1,3.42,3.42h0A3.42,3.42,0,0,1,135.77,189Z"/></g><path class="cls-3" d="M402.62,84.93h10.13a0,0,0,0,1,0,0V96.21a4.4,4.4,0,0,1-4.4,4.4H407a4.4,4.4,0,0,1-4.4-4.4V84.93A0,0,0,0,1,402.62,84.93Z"/><path class="cls-4" d="M418.45,81.51c1.57-2.57,1.07-7-1.73-9.83A8.76,8.76,0,0,0,406.4,70l-.56.3A8.74,8.74,0,0,0,401.39,76l-1.64,7.93-3.51,1.15,1,9.83,3.33-3,5.28-4.54,3.34,1.69a4.34,4.34,0,0,0,5.9-1.56v0l1-1.7Z"/><path class="cls-3" d="M419.65,78.9l.36-.06a9.77,9.77,0,0,0-6.71-11.61h0a9.75,9.75,0,0,0-12.41,7.69,41.86,41.86,0,0,0-.74,7.06l6.58-5.63.56.31A19.34,19.34,0,0,0,419.65,78.9Z"/><path class="cls-5" d="M412.08,85.44a1.92,1.92,0,0,1-3.3-2"/><path d="M408.52,108,407.41,95.9a5,5,0,0,0-1.29-2.56l-3.19-3.4-2.36,2-4.33-6.88L387.82,82s-14.09,19.43-15.89,30.88l-.46,3,19.43,3.54,6.71-11.18,3.46-3.07,1.34,8.38a4.75,4.75,0,0,0,4.83,4h0a4.78,4.78,0,0,0,4.16-2.69l8.15-16.93-4.64-2.11Z"/><path class="cls-6" d="M364.63,172.65l12.93-41s11.47-7.22,13-11.34l.34-.91-19.43-3.54-2.61,4.61a18.46,18.46,0,0,0-3.31,9.94l-.43,13.18-2,5a72.53,72.53,0,0,0-3.67,17.62l-.42,6.48Z"/><path class="cls-7" d="M387,170.31l.29,2.34h6.06L396,148.42a9.36,9.36,0,0,0-.49-4.51l-4.61-24.54-8.51-1.55-4.83,13.8,10.22,15.91S386,162.37,387,170.31Z"/><path class="cls-4" d="M407.22,79.15a2.19,2.19,0,1,1-.77-3A2.2,2.2,0,0,1,407.22,79.15Z"/><polygon points="384.54 94.55 381.29 112.44 394.3 128.81 398.37 126.12 391.16 109.76 391.06 90.24 384.54 94.55"/><path class="cls-4" d="M419.55,97.89h0a6.18,6.18,0,0,0,2.28-2l.81-1.22a2.25,2.25,0,0,0-.52-2.6l-2.21-2,1.67-3.21a.88.88,0,0,0-.49-1.23h0a.87.87,0,0,0-1,.29l-2.77,3.54-.26.29a8.17,8.17,0,0,0-1.29,1.9h0a7.89,7.89,0,0,0-.76,2.77l-.12,1.42Z"/><path class="cls-4" d="M403.67,133.27h0A.93.93,0,0,0,404,132l-2-3.5-2.27-.26,2.66,4.68A.93.93,0,0,0,403.67,133.27Z"/><path class="cls-4" d="M402.43,135h0a.92.92,0,0,0,.35-1.25l-3-5.45-1.6.91,3,5.44A.92.92,0,0,0,402.43,135Z"/><path class="cls-4" d="M400.47,135.09h0a.92.92,0,0,0,.34-1.25l-2.66-4.68-1.6.91,2.66,4.68A.93.93,0,0,0,400.47,135.09Z"/><path class="cls-4" d="M397.61,133.78h0a.92.92,0,0,0,.34-1.25l-1.4-2.46L395,131l1.4,2.46A.92.92,0,0,0,397.61,133.78Z"/><path class="cls-4" d="M395.48,131.91l-.9-1.58-.17-1.73,4.19-2.52.1,0a5.51,5.51,0,0,1,3.53,2.78l.13,0Z"/><path class="cls-5" d="M120.5,125.12a66.29,66.29,0,0,1-4,23.08,56.12,56.12,0,0,1-11.25,18.71l23.77,23L109,206.16,83.58,181.32a66,66,0,0,1-11.15,3,68.87,68.87,0,0,1-11.94,1q-27,0-43.74-17T0,125.12V99.59q0-26.1,16.71-43.15t43.59-17q26.69,0,43.44,17T120.5,99.59ZM87.67,99.4q0-15.2-7.16-24.94T60.3,64.72q-13.35,0-20.41,9.69t-7.06,25v25.72q0,15.39,7.16,25.13T60.49,160q13,0,20.07-9.74t7.11-25.13Z"/><path class="cls-5" d="M248.22,41.44v92.93q0,24.25-16.12,37.6t-42.23,13.35q-26.4,0-42.57-13.35t-16.17-37.6V41.44h33v92.93q0,13,6.72,19.34t19,6.28q12.16,0,18.75-6.24t6.58-19.38V41.44Z"/><path class="cls-5" d="M290.84,183.27H258V41.44h32.83Z"/><path class="cls-5" d="M341.37,157.94H406v25.33H300.84V168.46L364.26,66.77H300.55V41.44H405.07V55.66Z"/><path d="M89.75,186.77l-2.14,4.37H101.1a3.27,3.27,0,0,0-3.67-2.43l-1.62.25a1.59,1.59,0,0,1-1.46-2.19h-4.6Z"/><path d="M101.15,186.77,99,191.14h13.5a3.27,3.27,0,0,0-3.67-2.43l-1.62.25a1.58,1.58,0,0,1-1.46-2.19h-4.6Z"/><path class="cls-8" d="M99.72,187.17l-11.93-30.7-13.71-6.95-15.54,8.4-4.35-6.68,17,1.89L93.88,148a5.7,5.7,0,0,1,3.56,4.36l10.27,34.84Z"/><path class="cls-3" d="M85.55,148.71a5.66,5.66,0,0,1,3,4.49l7.82,34H88.92l-11-29S64,161.6,54.5,161.6c-4.18,0-8.78-3.93-8.78-8.79v-1.57Z"/><path class="cls-9" d="M78,147.69l4.11-6.29-9.61-20.17a8.44,8.44,0,0,0-7.63-4.82H52.64a10.28,10.28,0,0,0-8.94,5.21L33.15,137.5a4.56,4.56,0,0,0,1.91,6.68L45.72,149v4.12L69,150.36l-.61-21.85Zm-35.12-7.53a1.63,1.63,0,0,1-.65-2.47L45.72,133v8.36Z"/><path class="cls-4" d="M70.09,99c.06-3.33-2.9-7.24-7.19-8.39a9.71,9.71,0,0,0-10.75,4.26l-.37.6a9.69,9.69,0,0,0-1,7.92l2.82,8.36,0,4.69,4.15,2,3.93-2,.07-5.08h3.75a4.81,4.81,0,0,0,4.74-4.81v-3.58Z"/><path class="cls-5" d="M66.15,106.18a2.12,2.12,0,1,1-4.24,0"/><path class="cls-4" d="M60.23,148.78h0a1,1,0,0,0-.43-1.38l-4-2.06-2.66,1.31,5.68,2.56A1,1,0,0,0,60.23,148.78Z"/><path class="cls-4" d="M60.09,151.08h0a1,1,0,0,0-.42-1.37l-6.1-3.26-.94,1.81,6.08,3.25A1,1,0,0,0,60.09,151.08Z"/><path class="cls-4" d="M58.35,152.4h0a1,1,0,0,0-.44-1.38l-5.28-2.76-1,1.81L57,152.83A1,1,0,0,0,58.35,152.4Z"/><path class="cls-4" d="M54.9,152.9h0a1,1,0,0,0-.43-1.38l-2.79-1.45-.94,1.81,2.78,1.45A1,1,0,0,0,54.9,152.9Z"/><path class="cls-4" d="M51.8,152.43l-1.3-.68a2.49,2.49,0,0,1-.83-.68L48.81,150l2.38-4.86.12,0a6.08,6.08,0,0,1,5,.47Z"/><path d="M57.17,87.55h0a10.62,10.62,0,0,1,12.91,6.7,7.27,7.27,0,0,1,.49,2.12l-4.14.27L64.93,94l-.66,2.79-7.2.5L52.33,108.5a34.53,34.53,0,0,1-2.77-6.38A11,11,0,0,1,57.17,87.55Z"/><path class="cls-4" d="M57,102.93A1.95,1.95,0,1,1,55.07,101,2,2,0,0,1,57,102.93Z"/><path d="M62.06,87.2a3.83,3.83,0,1,1-3.83-3.83A3.82,3.82,0,0,1,62.06,87.2Z"/><path d="M57.42,93.57v13A10.77,10.77,0,0,1,55.89,99C56.66,94.84,57.42,93.57,57.42,93.57Z"/><path class="cls-5" d="M97.74,150.85H69.45A2.84,2.84,0,0,1,72.29,148H97.74Z"/><path d="M103.36,150.72H78.53a2.32,2.32,0,0,1-2.27-2.81L79.67,132a2.33,2.33,0,0,1,2.27-1.84h24.83a2.32,2.32,0,0,1,2.27,2.81l-3.41,15.94A2.33,2.33,0,0,1,103.36,150.72Z"/><path class="cls-5" d="M94.79,140.42a2.14,2.14,0,1,1-2.14-2.14A2.14,2.14,0,0,1,94.79,140.42Z"/><path class="cls-6" d="M169.44,11.6A11.59,11.59,0,0,0,157.77,0h-9.38a11.5,11.5,0,1,0,0,23h5.94l7.09,2.85V22.6A11.17,11.17,0,0,0,169.44,11.6Z"/><path class="cls-3" d="M328.13,161.45A11.32,11.32,0,0,0,339.53,173h9.38a11.5,11.5,0,1,0,0-23H343l-6.55-2.74v3.25A11.34,11.34,0,0,0,328.13,161.45Z"/><path class="cls-3" d="M71,67.43A11.11,11.11,0,0,1,82.28,56h9.38a11.5,11.5,0,1,1,0,23H85.72l-6.3,2.5V78.25C73.42,76.69,71,72.59,71,67.43Z"/><path class="cls-3" d="M278.16,59a6.57,6.57,0,0,1-.88,3.71,13.35,13.35,0,0,1-3.18,2.86,5.68,5.68,0,0,0-1.87,1.84,4.69,4.69,0,0,0-.69,2.54,3.44,3.44,0,0,0,.8,2.38,2.9,2.9,0,0,0,2.27.89,2.85,2.85,0,0,0,2-.73,2.94,2.94,0,0,0,.84-2.17h5.84l0,.11A6.42,6.42,0,0,1,281,76a10.09,10.09,0,0,1-6.35,1.85A9.75,9.75,0,0,1,268,75.68a7.27,7.27,0,0,1-2.42-5.75,6.9,6.9,0,0,1,1.32-4.08,9.42,9.42,0,0,1,3.37-2.93,4,4,0,0,0,1.53-1.61,5.55,5.55,0,0,0,.4-2.33Zm-6-7.39h6v4.79h-6Z"/><path class="cls-4" d="M143.91,131.5a6.56,6.56,0,0,1,.89-3.71,13.14,13.14,0,0,1,3.18-2.86,5.77,5.77,0,0,0,1.87-1.84,4.78,4.78,0,0,0,.68-2.54,3.38,3.38,0,0,0-.8-2.38,2.9,2.9,0,0,0-2.27-.89,2.83,2.83,0,0,0-2,.73,2.88,2.88,0,0,0-.83,2.17H138.8l0-.11a6.45,6.45,0,0,1,2.35-5.55,10.11,10.11,0,0,1,6.35-1.86,9.73,9.73,0,0,1,6.65,2.13,7.28,7.28,0,0,1,2.42,5.76,6.9,6.9,0,0,1-1.32,4.08,9.4,9.4,0,0,1-3.36,2.93,4.08,4.08,0,0,0-1.54,1.61,5.55,5.55,0,0,0-.4,2.33Zm6,7.39h-6V134.1h6Z"/><path class="cls-4" d="M143.91,131.5a6.56,6.56,0,0,1,.89-3.71,13.14,13.14,0,0,1,3.18-2.86,5.77,5.77,0,0,0,1.87-1.84,4.78,4.78,0,0,0,.68-2.54,3.38,3.38,0,0,0-.8-2.38,2.9,2.9,0,0,0-2.27-.89,2.83,2.83,0,0,0-2,.73,2.88,2.88,0,0,0-.83,2.17H138.8l0-.11a6.45,6.45,0,0,1,2.35-5.55,10.11,10.11,0,0,1,6.35-1.86,9.73,9.73,0,0,1,6.65,2.13,7.28,7.28,0,0,1,2.42,5.76,6.9,6.9,0,0,1-1.32,4.08,9.4,9.4,0,0,1-3.36,2.93,4.08,4.08,0,0,0-1.54,1.61,5.55,5.55,0,0,0-.4,2.33Zm6,7.39h-6V134.1h6Z"/><path d="M41.72,81.39h-6V64.7h6Zm0,9.16h-6v-5h6Z"/><path d="M380.57,44h-6V27.34h6Zm0,9.16h-6v-5h6Z"/><path d="M180.8,154.38l-.81,4-10.06-5.2h0a3,3,0,0,1,3.94-.43l1.19.87a1.43,1.43,0,0,0,2.07-1.15h0Z"/><path d="M199.66,154.38l.82,4,10.05-5.2h0a3,3,0,0,0-3.93-.43l-1.19.87a1.43,1.43,0,0,1-2.07-1.15h0Z"/><path class="cls-9" d="M204.32,116l-2.94-26.8-10.21-4-.94.36-.93-.36-10.21,4L176.15,116a6.69,6.69,0,0,0,0,1l1,35.49,3.67,1.91s2.51-4.53,3.67-15.46a118.5,118.5,0,0,0,.26-20.74l5.5-19.67,5.5,19.67a119.12,119.12,0,0,0,.27,20.74c1.15,10.93,3.66,15.46,3.66,15.46l3.68-1.91,1-35.49A6.69,6.69,0,0,0,204.32,116Z"/><path class="cls-4" d="M238.46,40.31l-7.77,2.47.55,1.72L239,42a.9.9,0,1,0-.55-1.71Z"/><path class="cls-4" d="M229.39,41.19l.61-.5a15.65,15.65,0,0,0,8.36-6.38l.14-.23a1.45,1.45,0,0,1,2.21-.27h0a1.44,1.44,0,0,1,.34,1.64h0a15.64,15.64,0,0,1-7.9,7.94l-3.92,1.75Z"/><path class="cls-4" d="M142.21,40.31,150,42.78l-.55,1.72L141.66,42a.9.9,0,0,1,.55-1.71Z"/><path class="cls-4" d="M151.28,41.19l-.61-.5a15.61,15.61,0,0,1-8.36-6.38l-.15-.23a1.44,1.44,0,0,0-2.2-.27h0a1.44,1.44,0,0,0-.34,1.64h0a15.64,15.64,0,0,0,7.9,7.94l3.91,1.75Z"/><path class="cls-3" d="M229.86,40.65,194.15,52.3h-7.64l-35.7-11.65-1.1,3.9,28,13.31L178.52,89h23.63L203,57.86l28-13.47Z"/><path class="cls-4" d="M202.54,35c.05-3.38-2.94-7.33-7.28-8.5a9.82,9.82,0,0,0-10.89,4.31l-.38.61a9.84,9.84,0,0,0-1.05,8l2.86,8.46-.15,4.1,4.49,4,4-3.75V47.4l3.72.11a4.87,4.87,0,0,0,4.8-4.87V39Z"/><path d="M184.67,74.08h0a3.21,3.21,0,0,0,3.2-3.21L187.7,36.8l15-4a7.23,7.23,0,0,0-.47-2.07,10.37,10.37,0,0,0-12.6-6.53h0a10.76,10.76,0,0,0-8.14,10.49c0,.4,0,25.58,0,36.17A3.19,3.19,0,0,0,184.67,74.08Z"/><path class="cls-5" d="M198.55,42.31a2.15,2.15,0,0,1-4.29,0"/><path class="cls-4" d="M190.62,38.9a2.54,2.54,0,1,1-2.53-2.53A2.54,2.54,0,0,1,190.62,38.9Z"/><path d="M312.62,106.13v18.2a2.19,2.19,0,0,0,1.75,2.18,2.09,2.09,0,0,0,2.45-2.07v-5.25a2.13,2.13,0,0,1,2.14-2.1c1,0,2.06.68,2.06,1.6V136.4a2.19,2.19,0,0,0,1.75,2.19,2.1,2.1,0,0,0,2.45-2.07l0-13.7a2.12,2.12,0,0,1,2.21-2.15h0a2.12,2.12,0,0,1,2,2.12V127a2.19,2.19,0,0,0,1.75,2.19,2.1,2.1,0,0,0,2.45-2.07V102.52Z"/><path class="cls-4" d="M313.17,53.57h21.21l5.72-12.18A4.06,4.06,0,0,0,336,35.62h0a4.07,4.07,0,0,0-1.87.68l-10.37,7.06L313.41,36.3a4.07,4.07,0,0,0-1.87-.68h0a4.07,4.07,0,0,0-4.1,5.77Z"/><path class="cls-4" d="M289.39,110.69l5.45-6-1.32-1.21-5.45,6a.9.9,0,1,0,1.32,1.21Z"/><path class="cls-4" d="M296.75,105.44l-.28.74a15.49,15.49,0,0,0-4,9.62v.27a1.44,1.44,0,0,1-1.76,1.32h0a1.45,1.45,0,0,1-1.11-1.25h0a15.52,15.52,0,0,1,2.87-10.73l2.5-3.44Z"/><path class="cls-4" d="M359.21,110.69l-5.46-6,1.32-1.21,5.46,6a.91.91,0,0,1-.06,1.27A.89.89,0,0,1,359.21,110.69Z"/><path class="cls-4" d="M351.85,105.44l.27.74a15.44,15.44,0,0,1,4,9.62v.27a1.44,1.44,0,0,0,1.76,1.32h0a1.45,1.45,0,0,0,1.11-1.25h0a15.52,15.52,0,0,0-2.87-10.73l-2.5-3.44Z"/><path class="cls-6" d="M354.8,103.43,336.62,78.92l-2.24-25.35-1.46-.43a32.35,32.35,0,0,0-18-.06l-1.74.49-1.36,25.57-18,24.29,2.82,2.7,13.75-14.42a19.26,19.26,0,0,1,13.91-6h0a19.3,19.3,0,0,1,14,5.93L352,106Z"/><path class="cls-4" d="M312,102.68c0,3.26,2.85,7.09,7.05,8.22a9.52,9.52,0,0,0,10.54-4.17l.36-.59a9.52,9.52,0,0,0,1-7.77l-2.77-6.86,0-4.88-3.89-3-4,3-.09,5.26h-3.68a4.7,4.7,0,0,0-4.64,4.71V98.8Z"/><path class="cls-5" d="M315.88,96.94a2.08,2.08,0,0,1,4.16,0"/><path d="M325.59,101.77l-14,3a7.27,7.27,0,0,0,.49,2.12,10.68,10.68,0,0,0,13,6.74,11.26,11.26,0,0,0,8.52-10.56c0-4.69-4.29-8.78-4.29-8.78Z"/><path class="cls-4" d="M323.9,100.12a2.38,2.38,0,1,1,2.37,2.38A2.38,2.38,0,0,1,323.9,100.12Z"/><path d="M265.32,145.9c-1.59-5.22-3.9-7.44-8.19-7.71-1.89-.11-17.76-.11-19.66,0-4.28.27-6.27,3-7.88,8.26L226,161.08a5.61,5.61,0,0,0,1.37,4.55l4.89,5.44,2.27-19.26,4.19,23h18.82l3.12-23,3.09,19.12,4.76-5.39a5.62,5.62,0,0,0,1.33-4.56Z"/><path class="cls-4" d="M234.73,121.67c-.06-3.35,2.92-7.27,7.22-8.42a9.73,9.73,0,0,1,10.8,4.27l.37.6a9.73,9.73,0,0,1,1,8l-2.84,7,0,5-4,3-4.08-3-.09-5.38h-3.77a4.84,4.84,0,0,1-4.76-4.84v-2.24Z"/><path class="cls-5" d="M238.68,127.55a2.13,2.13,0,1,0,4.26,0"/><path class="cls-3" d="M251.77,132l3-5.11a10.92,10.92,0,0,0,.93-2.06l0,0A11.07,11.07,0,0,0,249,110.71l-.84-.24a11,11,0,0,0-13.3,6.9,7.53,7.53,0,0,0-.5,2.18l7,5.09a3.79,3.79,0,0,0,5.14-.62l1.42-1.69Z"/><path class="cls-4" d="M246.9,124.29a2.44,2.44,0,1,0,2.43-2.44A2.43,2.43,0,0,0,246.9,124.29Z"/><path class="cls-4" d="M276.81,174.72a5.61,5.61,0,0,0-6.15-2.4L260,175h-24.4L225,172.32a5.63,5.63,0,0,0-6.15,2.46,5.77,5.77,0,0,0,2.6,8.3l19,5.92H260.5l13.71-5.95A5.8,5.8,0,0,0,276.81,174.72Z"/><path d="M254.06,187.33l1.42,1.58,13.59.17h0a3.37,3.37,0,0,0-3.68-2.61l-1.66.21a7.15,7.15,0,0,1-5-2.44Z"/><path d="M233.17,186.53a5.29,5.29,0,0,1-1.22.15l-1.66-.21a3.37,3.37,0,0,0-3.68,2.61l13.82-.15Z"/><path class="cls-5" d="M260.71,181.53H234.93a2.5,2.5,0,0,1-2.49-2.25l-1.67-16.08a2.5,2.5,0,0,1,2.49-2.76h29.16a2.5,2.5,0,0,1,2.49,2.77l-1.71,16.08A2.5,2.5,0,0,1,260.71,181.53Z"/><path class="cls-6" d="M250,171a2.19,2.19,0,1,1-2.19-2.19A2.19,2.19,0,0,1,250,171Z"/><path d="M233.85,120.27c0-.6.13-2.33.18-3.28.42-5.07,5.9-9.15,11.6-9a11.79,11.79,0,0,1,10.72,7.9A10.8,10.8,0,0,1,257,119l-.06,1.2-29.31,1.68-.07-1.2Z"/></g></g></g></svg>